<svg width="50" height="49" viewBox="0 0 50 49" fill="none" xmlns="http://www.w3.org/2000/svg">
<g filter="url(#filter0_ii_1172_438)">
<path d="M0 0.0999756H30C41.0457 0.0999756 50 9.05428 50 20.1V48.9H20C8.9543 48.9 0 39.9457 0 28.9V0.0999756Z" fill="#FAFAFA" fill-opacity="0.9"/>
<path d="M24.2974 9.36468L30.057 9.36468L41.7666 39.9232L36.9423 39.9232L24.2974 9.36468Z" fill="url(#paint0_linear_1172_438)"/>
<path d="M21.2502 13.0127L24.2667 9.35354L36.7175 39.9911L31.6946 40.0791L21.2502 13.0127Z" fill="url(#paint1_linear_1172_438)"/>
<path d="M21.1938 13.0165L22.7875 16.058L12.9041 40.284L9.93192 40.284L21.1938 13.0165Z" fill="url(#paint2_linear_1172_438)"/>
<ellipse cx="10.9457" cy="22.9734" rx="4.0281" ry="2.37701" fill="url(#paint3_linear_1172_438)"/>
<ellipse cx="12.3348" cy="17.8916" rx="2.6391" ry="1.55735" fill="url(#paint4_linear_1172_438)"/>
<ellipse cx="16.9184" cy="15.2687" rx="1.6668" ry="1.06556" fill="url(#paint5_linear_1172_438)"/>
<ellipse cx="16.8486" cy="28.715" rx="6.20732" ry="3.66298" fill="url(#paint6_linear_1172_438)"/>
<path d="M10.9107 27.372L11.3624 27.9795C12.0964 28.05 13.2004 28.1261 14.1922 28.2204C14.7075 28.2694 15.1922 28.3231 15.5792 28.3857C15.9672 28.4466 16.2571 28.5007 16.4248 28.6225L16.4386 28.6319L16.4468 28.6429C16.5787 28.8081 16.7225 28.9007 16.8504 28.9445C16.9783 28.9883 17.0915 28.991 17.2208 28.9665C17.4783 28.9191 17.7757 28.73 17.9509 28.5048C18.1243 28.28 18.167 28.0323 18.0432 27.8901C17.9816 27.8196 17.8873 27.7689 17.7187 27.7406C17.552 27.7118 17.3033 27.71 16.9632 27.7594C16.7177 27.7954 16.3484 27.7811 15.8395 27.7529C15.3314 27.7258 14.707 27.6796 14.0556 27.6277C12.9108 27.5348 11.7087 27.4272 10.9107 27.372ZM14.1042 26.5087C14.5277 26.5411 15.2683 26.6062 16.0715 26.7156C17.3061 26.8835 18.6697 27.1699 19.1536 27.5368L19.1544 27.5379C19.2812 27.6352 19.5212 27.9244 19.7733 28.2848C20.0245 28.644 20.3029 29.0795 20.5596 29.5012C20.8733 30.0146 21.1552 30.5037 21.3298 30.8087L21.6694 30.7128C21.4932 30.4057 21.2151 29.9248 20.9071 29.4191C20.6477 28.9969 20.3695 28.5587 20.1134 28.1928C19.8581 27.828 19.6396 27.5434 19.4456 27.3984L19.4448 27.3973C18.8314 26.9325 17.4261 26.6725 16.1661 26.501C15.6308 26.4282 15.1214 26.3749 14.712 26.3371L14.1042 26.5087ZM11.8625 28.802L12.0631 29.0717C13.3464 29.3035 15.1184 29.5638 16.2369 29.6823C16.5193 30.3857 17.1617 31.1886 17.6811 31.8384L18.0188 31.7431C17.4803 31.0707 16.8212 30.2392 16.5678 29.5596L16.5429 29.4894L16.425 29.4774C15.2525 29.3595 13.1718 29.0491 11.8625 28.802ZM18.085 27.4854L18.8865 28.3193C19.0059 28.2203 19.057 28.1273 19.0663 28.0422C19.0766 27.9247 19.0058 27.8142 18.8805 27.719C18.6846 27.5746 18.3613 27.4847 18.085 27.4854ZM18.4541 28.5465C18.4192 28.579 18.374 28.6464 18.2899 28.7287C18.1357 28.8814 17.8302 29.0689 17.1629 29.2306C17.2142 29.324 17.3361 29.3841 17.5384 29.4242C17.79 29.4757 18.1556 29.4791 18.5427 29.4258L18.6047 29.4176L18.6619 29.4334C18.7921 29.4713 18.8637 29.531 18.9671 29.615C19.0704 29.699 19.1872 29.8072 19.3117 29.9319C19.5614 30.1824 19.8455 30.5004 20.1127 30.8139C20.1906 30.9064 20.2676 30.9979 20.3412 31.0877L20.8852 30.9341C20.4265 30.3538 19.9475 29.6912 19.539 28.9648C19.4402 28.8289 19.3308 28.7 19.1807 28.6172C19.0306 28.5343 18.8513 28.4917 18.5357 28.5129C18.4943 28.5152 18.47 28.5314 18.4541 28.5465ZM17.5401 29.6555C17.5663 29.6907 17.5944 29.7254 17.6243 29.7596C17.7487 29.9056 17.8965 30.025 18.0114 30.0605L18.0676 30.0779L19.0749 31.445L19.4088 31.3508L18.4064 29.9384L18.429 29.8987C18.4852 29.8003 18.4887 29.7287 18.475 29.6553C18.1416 29.6921 17.8193 29.6952 17.5401 29.6555Z" fill="url(#paint7_linear_1172_438)"/>
<line y1="-1" x2="33.3135" y2="-1" transform="matrix(0.383308 0.923621 -0.989718 0.14303 24.2974 9.35352)" stroke="#FAFAFA" stroke-opacity="0.9" stroke-width="2"/>
</g>
<defs>
<filter id="filter0_ii_1172_438" x="-4" y="-3.90002" width="58" height="56.8" filterUnits="userSpaceOnUse" color-interpolation-filters="sRGB">
<feFlood flood-opacity="0" result="BackgroundImageFix"/>
<feBlend mode="normal" in="SourceGraphic" in2="BackgroundImageFix" result="shape"/>
<feColorMatrix in="SourceAlpha" type="matrix" values="0 0 0 0 0 0 0 0 0 0 0 0 0 0 0 0 0 0 127 0" result="hardAlpha"/>
<feOffset dx="4" dy="4"/>
<feGaussianBlur stdDeviation="2"/>
<feComposite in2="hardAlpha" operator="arithmetic" k2="-1" k3="1"/>
<feColorMatrix type="matrix" values="0 0 0 0 0 0 0 0 0 0 0 0 0 0 0 0 0 0 0.25 0"/>
<feBlend mode="normal" in2="shape" result="effect1_innerShadow_1172_438"/>
<feColorMatrix in="SourceAlpha" type="matrix" values="0 0 0 0 0 0 0 0 0 0 0 0 0 0 0 0 0 0 127 0" result="hardAlpha"/>
<feOffset dx="-4" dy="-4"/>
<feGaussianBlur stdDeviation="2"/>
<feComposite in2="hardAlpha" operator="arithmetic" k2="-1" k3="1"/>
<feColorMatrix type="matrix" values="0 0 0 0 0 0 0 0 0 0 0 0 0 0 0 0 0 0 0.25 0"/>
<feBlend mode="normal" in2="effect1_innerShadow_1172_438" result="effect2_innerShadow_1172_438"/>
</filter>
<linearGradient id="paint0_linear_1172_438" x1="26.769" y1="8.91723" x2="33.0732" y2="41.6" gradientUnits="userSpaceOnUse">
<stop offset="0.552083" stop-color="#1477AF"/>
<stop offset="1" stop-color="#07689F"/>
<stop offset="1" stop-color="#EFEFEF" stop-opacity="0.67"/>
<stop offset="1" stop-color="#0B79B8"/>
</linearGradient>
<linearGradient id="paint1_linear_1172_438" x1="22.8476" y1="10.2424" x2="26.9953" y2="41.4245" gradientUnits="userSpaceOnUse">
<stop offset="0.359375" stop-color="#0C6FA8" stop-opacity="0.84"/>
<stop offset="0.765625" stop-color="#1D76A8"/>
<stop offset="0.9999" stop-color="#07689F"/>
<stop offset="1" stop-color="white"/>
</linearGradient>
<linearGradient id="paint2_linear_1172_438" x1="22.1514" y1="13.145" x2="18.3569" y2="41.4148" gradientUnits="userSpaceOnUse">
<stop stop-color="#0B78B6" stop-opacity="0.91"/>
<stop offset="1" stop-color="#0170AF" stop-opacity="0.87"/>
</linearGradient>
<linearGradient id="paint3_linear_1172_438" x1="10.9457" y1="20.5964" x2="10.9457" y2="25.3505" gradientUnits="userSpaceOnUse">
<stop stop-color="#0D70A8"/>
<stop offset="1" stop-color="#0C86CB" stop-opacity="0.96"/>
</linearGradient>
<linearGradient id="paint4_linear_1172_438" x1="12.3348" y1="16.3342" x2="12.3348" y2="19.4489" gradientUnits="userSpaceOnUse">
<stop stop-color="#07689F"/>
<stop offset="0.765625" stop-color="#0A76B4" stop-opacity="0.9475"/>
<stop offset="1" stop-color="#0F79B6" stop-opacity="0.93"/>
</linearGradient>
<linearGradient id="paint5_linear_1172_438" x1="16.9184" y1="14.2031" x2="16.9184" y2="16.3342" gradientUnits="userSpaceOnUse">
<stop stop-color="#075D8E"/>
<stop offset="0.791667" stop-color="#0680C6" stop-opacity="0.960417"/>
<stop offset="1" stop-color="#0A75B1" stop-opacity="0.95"/>
</linearGradient>
<linearGradient id="paint6_linear_1172_438" x1="16.8486" y1="25.0521" x2="16.8486" y2="32.378" gradientUnits="userSpaceOnUse">
<stop stop-color="#1088CC"/>
<stop offset="1" stop-color="#07689F"/>
</linearGradient>
<linearGradient id="paint7_linear_1172_438" x1="14.4185" y1="26.382" x2="27.5919" y2="39.4243" gradientUnits="userSpaceOnUse">
<stop stop-color="#FAFAFA" stop-opacity="0.94"/>
<stop offset="1" stop-color="#EFF1F0" stop-opacity="0.97"/>
</linearGradient>
</defs>
</svg>
