<svg width="395" height="58" viewBox="0 0 395 58" fill="none" xmlns="http://www.w3.org/2000/svg">
<path d="M29.576 5.952L47 50.952C47.72 52.632 48.464 53.808 49.232 54.48C50.048 55.152 50.768 55.512 51.392 55.56V57C49.856 56.904 48.008 56.856 45.848 56.856C43.736 56.808 41.576 56.784 39.368 56.784C37.064 56.784 34.88 56.808 32.816 56.856C30.752 56.856 29.096 56.904 27.848 57V55.56C30.296 55.464 31.856 55.056 32.528 54.336C33.2 53.568 33.056 51.96 32.096 49.512L20.144 16.824L21.584 14.664L11.072 41.808C9.968 44.688 9.296 47.016 9.056 48.792C8.816 50.568 8.936 51.936 9.416 52.896C9.896 53.856 10.64 54.528 11.648 54.912C12.704 55.296 13.952 55.512 15.392 55.56V57C13.712 56.904 12.152 56.856 10.712 56.856C9.32 56.808 7.808 56.784 6.176 56.784C5.216 56.784 4.232 56.808 3.224 56.856C2.264 56.856 1.424 56.904 0.704 57V55.56C1.76 55.368 2.816 54.696 3.872 53.544C4.976 52.392 6.056 50.4 7.112 47.568L23.312 5.952C24.272 6.048 25.304 6.096 26.408 6.096C27.56 6.096 28.616 6.048 29.576 5.952ZM33.32 36.264V37.704H11.864L12.584 36.264H33.32ZM77.2175 18.696C79.2335 18.696 81.0335 18.912 82.6175 19.344C84.2015 19.728 85.4975 20.232 86.5055 20.856C87.7535 21.624 88.7615 22.608 89.5295 23.808C90.2975 25.008 90.6815 26.4 90.6815 27.984C90.6815 29.808 90.0815 31.344 88.8815 32.592C87.6815 33.792 86.1695 34.392 84.3455 34.392C82.4735 34.392 80.9855 33.84 79.8815 32.736C78.8255 31.632 78.2975 30.216 78.2975 28.488C78.2975 26.808 78.8255 25.392 79.8815 24.24C80.9375 23.088 82.1855 22.32 83.6255 21.936C83.2415 21.552 82.7375 21.24 82.1135 21C81.5375 20.76 80.8415 20.64 80.0255 20.64C78.3935 20.64 77.0255 21.12 75.9215 22.08C74.8175 22.992 73.9055 24.264 73.1855 25.896C72.5135 27.48 72.0095 29.28 71.6735 31.296C71.3855 33.264 71.2415 35.304 71.2415 37.416C71.2415 40.968 71.6975 43.752 72.6095 45.768C73.5695 47.736 74.7455 49.128 76.1375 49.944C77.5775 50.712 79.0415 51.096 80.5295 51.096C81.2975 51.096 82.1855 50.976 83.1935 50.736C84.2015 50.496 85.2575 49.992 86.3615 49.224C87.5135 48.456 88.5935 47.304 89.6015 45.768L90.8255 46.2C90.2975 48.072 89.4095 49.92 88.1615 51.744C86.9135 53.568 85.3055 55.08 83.3375 56.28C81.3695 57.432 78.9695 58.008 76.1375 58.008C72.9695 58.008 70.0895 57.36 67.4975 56.064C64.9535 54.768 62.9135 52.68 61.3775 49.8C59.8415 46.92 59.0735 43.152 59.0735 38.496C59.0735 33.984 59.8655 30.288 61.4495 27.408C63.0335 24.48 65.1935 22.296 67.9295 20.856C70.7135 19.416 73.8095 18.696 77.2175 18.696ZM115.81 0.695995V50.304C115.81 52.32 116.122 53.688 116.746 54.408C117.418 55.128 118.546 55.488 120.13 55.488V57C119.218 56.952 117.826 56.904 115.954 56.856C114.082 56.76 112.162 56.712 110.194 56.712C108.274 56.712 106.306 56.76 104.29 56.856C102.322 56.904 100.834 56.952 99.8255 57V55.488C101.41 55.488 102.514 55.128 103.138 54.408C103.81 53.688 104.146 52.32 104.146 50.304V9.264C104.146 7.152 103.834 5.592 103.21 4.584C102.634 3.528 101.506 3 99.8255 3V1.488C101.362 1.632 102.85 1.704 104.29 1.704C106.498 1.704 108.562 1.632 110.482 1.488C112.402 1.296 114.178 1.032 115.81 0.695995ZM151.655 6.024C152.951 6.072 154.679 6.12 156.839 6.168C158.999 6.216 161.159 6.24 163.319 6.24C165.671 6.24 167.927 6.216 170.087 6.168C172.295 6.12 173.855 6.096 174.767 6.096C179.471 6.096 183.335 6.576 186.359 7.536C189.431 8.496 191.735 9.912 193.271 11.784C194.807 13.608 195.575 15.888 195.575 18.624C195.575 20.352 195.215 22.056 194.495 23.736C193.823 25.368 192.647 26.88 190.967 28.272C189.335 29.664 187.055 30.768 184.127 31.584C181.247 32.4 177.599 32.808 173.183 32.808H166.271V31.368H172.463C175.103 31.368 177.095 30.84 178.439 29.784C179.831 28.68 180.767 27.24 181.247 25.464C181.775 23.64 182.039 21.624 182.039 19.416C182.039 15.624 181.439 12.696 180.239 10.632C179.039 8.52 176.999 7.464 174.119 7.464C172.343 7.464 171.191 7.872 170.663 8.688C170.183 9.504 169.943 11.16 169.943 13.656V49.368C169.943 51.096 170.063 52.392 170.303 53.256C170.591 54.12 171.095 54.696 171.815 54.984C172.583 55.272 173.711 55.464 175.199 55.56V57C173.855 56.904 172.127 56.856 170.015 56.856C167.951 56.808 165.863 56.784 163.751 56.784C161.303 56.784 158.999 56.808 156.839 56.856C154.679 56.856 152.951 56.904 151.655 57V55.56C153.143 55.464 154.247 55.272 154.967 54.984C155.735 54.696 156.239 54.12 156.479 53.256C156.767 52.392 156.911 51.096 156.911 49.368V13.656C156.911 11.88 156.767 10.584 156.479 9.768C156.239 8.904 155.735 8.328 154.967 8.04C154.247 7.704 153.143 7.512 151.655 7.464V6.024ZM165.983 31.584C167.855 31.632 169.559 31.728 171.095 31.872C172.631 32.016 173.999 32.16 175.199 32.304C176.447 32.4 177.527 32.472 178.439 32.52C183.191 32.808 186.719 33.72 189.023 35.256C191.375 36.744 192.863 38.976 193.487 41.952L194.999 49.44C195.431 51.264 195.887 52.56 196.367 53.328C196.847 54.048 197.519 54.384 198.383 54.336C198.911 54.336 199.367 54.24 199.751 54.048C200.135 53.808 200.519 53.472 200.903 53.04L201.911 53.976C200.519 55.464 199.007 56.496 197.375 57.072C195.743 57.696 193.847 58.008 191.687 58.008C188.855 58.008 186.527 57.456 184.703 56.352C182.927 55.248 181.799 53.208 181.319 50.232L180.095 43.032C179.807 41.064 179.423 39.312 178.943 37.776C178.511 36.24 177.911 35.04 177.143 34.176C176.375 33.264 175.295 32.808 173.903 32.808H166.127L165.983 31.584ZM226.539 18.696C230.763 18.696 234.075 19.944 236.475 22.44C238.875 24.936 240.075 29.04 240.075 34.752H216.963L216.891 33.384H230.283C230.379 31.032 230.283 28.872 229.995 26.904C229.707 24.888 229.227 23.28 228.555 22.08C227.931 20.88 227.091 20.28 226.035 20.28C224.595 20.28 223.371 21.312 222.363 23.376C221.355 25.44 220.731 28.944 220.491 33.888L220.779 34.392C220.683 34.92 220.635 35.472 220.635 36.048C220.635 36.576 220.635 37.152 220.635 37.776C220.635 41.088 221.067 43.728 221.931 45.696C222.843 47.664 223.971 49.056 225.315 49.872C226.659 50.688 228.051 51.096 229.491 51.096C230.307 51.096 231.219 50.976 232.227 50.736C233.235 50.496 234.291 49.992 235.395 49.224C236.499 48.456 237.555 47.328 238.563 45.84L239.787 46.272C239.259 48.144 238.347 49.992 237.051 51.816C235.803 53.592 234.195 55.08 232.227 56.28C230.259 57.432 227.883 58.008 225.099 58.008C221.931 58.008 219.099 57.36 216.603 56.064C214.107 54.72 212.115 52.632 210.627 49.8C209.187 46.92 208.467 43.176 208.467 38.568C208.467 34.008 209.259 30.264 210.843 27.336C212.427 24.408 214.587 22.248 217.323 20.856C220.059 19.416 223.131 18.696 226.539 18.696ZM284.224 19.704V21.216C283.312 21.504 282.448 22.104 281.632 23.016C280.816 23.928 280 25.512 279.184 27.768L269.032 57.072C268.072 56.976 267.112 56.928 266.152 56.928C265.192 56.928 264.208 56.976 263.2 57.072L250.528 25.248C249.808 23.424 249.064 22.296 248.296 21.864C247.528 21.432 246.88 21.216 246.352 21.216V19.704C248.08 19.8 249.88 19.896 251.752 19.992C253.624 20.04 255.664 20.064 257.872 20.064C259.36 20.064 260.92 20.04 262.552 19.992C264.232 19.896 265.792 19.8 267.232 19.704V21.216C266.32 21.216 265.48 21.264 264.712 21.36C263.992 21.456 263.464 21.72 263.128 22.152C262.84 22.584 262.864 23.376 263.2 24.528L271.408 46.92L270.616 48.144L275.44 34.248C276.448 31.32 276.88 28.92 276.736 27.048C276.592 25.176 276.04 23.76 275.08 22.8C274.168 21.84 272.944 21.312 271.408 21.216V19.704C272.128 19.752 272.92 19.8 273.784 19.848C274.696 19.896 275.584 19.944 276.448 19.992C277.36 19.992 278.104 19.992 278.68 19.992C279.592 19.992 280.6 19.968 281.704 19.92C282.808 19.872 283.648 19.8 284.224 19.704ZM301.265 0.911997C303.521 0.911997 305.273 1.416 306.521 2.424C307.817 3.432 308.465 4.896 308.465 6.816C308.465 8.736 307.817 10.2 306.521 11.208C305.273 12.216 303.521 12.72 301.265 12.72C299.009 12.72 297.233 12.216 295.937 11.208C294.689 10.2 294.065 8.736 294.065 6.816C294.065 4.896 294.689 3.432 295.937 2.424C297.233 1.416 299.009 0.911997 301.265 0.911997ZM307.601 18.912V50.304C307.601 52.32 307.913 53.688 308.537 54.408C309.209 55.128 310.337 55.488 311.921 55.488V57C310.961 56.952 309.545 56.904 307.673 56.856C305.801 56.76 303.905 56.712 301.985 56.712C300.065 56.712 298.097 56.76 296.081 56.856C294.113 56.904 292.625 56.952 291.617 57V55.488C293.201 55.488 294.305 55.128 294.929 54.408C295.601 53.688 295.937 52.32 295.937 50.304V27.552C295.937 25.392 295.625 23.808 295.001 22.8C294.377 21.744 293.249 21.216 291.617 21.216V19.704C293.153 19.848 294.641 19.92 296.081 19.92C298.241 19.92 300.281 19.848 302.201 19.704C304.169 19.512 305.969 19.248 307.601 18.912ZM355.651 19.704V21.216C354.739 21.504 353.875 22.104 353.059 23.016C352.243 23.928 351.427 25.512 350.611 27.768L340.459 57.072C339.499 56.976 338.539 56.928 337.579 56.928C336.619 56.928 335.635 56.976 334.627 57.072L321.955 25.248C321.235 23.424 320.491 22.296 319.723 21.864C318.955 21.432 318.307 21.216 317.779 21.216V19.704C319.507 19.8 321.307 19.896 323.179 19.992C325.051 20.04 327.091 20.064 329.299 20.064C330.787 20.064 332.347 20.04 333.979 19.992C335.659 19.896 337.219 19.8 338.659 19.704V21.216C337.747 21.216 336.907 21.264 336.139 21.36C335.419 21.456 334.891 21.72 334.555 22.152C334.267 22.584 334.291 23.376 334.627 24.528L342.835 46.92L342.043 48.144L346.867 34.248C347.875 31.32 348.307 28.92 348.163 27.048C348.019 25.176 347.467 23.76 346.507 22.8C345.595 21.84 344.371 21.312 342.835 21.216V19.704C343.555 19.752 344.347 19.8 345.211 19.848C346.123 19.896 347.011 19.944 347.875 19.992C348.787 19.992 349.531 19.992 350.107 19.992C351.019 19.992 352.027 19.968 353.131 19.92C354.235 19.872 355.075 19.8 355.651 19.704ZM380.712 18.696C384.936 18.696 388.248 19.944 390.648 22.44C393.048 24.936 394.248 29.04 394.248 34.752H371.136L371.064 33.384H384.456C384.552 31.032 384.456 28.872 384.168 26.904C383.88 24.888 383.4 23.28 382.728 22.08C382.104 20.88 381.264 20.28 380.208 20.28C378.768 20.28 377.544 21.312 376.536 23.376C375.528 25.44 374.904 28.944 374.664 33.888L374.952 34.392C374.856 34.92 374.808 35.472 374.808 36.048C374.808 36.576 374.808 37.152 374.808 37.776C374.808 41.088 375.24 43.728 376.104 45.696C377.016 47.664 378.144 49.056 379.488 49.872C380.832 50.688 382.224 51.096 383.664 51.096C384.48 51.096 385.392 50.976 386.4 50.736C387.408 50.496 388.464 49.992 389.568 49.224C390.672 48.456 391.728 47.328 392.736 45.84L393.96 46.272C393.432 48.144 392.52 49.992 391.224 51.816C389.976 53.592 388.368 55.08 386.4 56.28C384.432 57.432 382.056 58.008 379.272 58.008C376.104 58.008 373.272 57.36 370.776 56.064C368.28 54.72 366.288 52.632 364.8 49.8C363.36 46.92 362.64 43.176 362.64 38.568C362.64 34.008 363.432 30.264 365.016 27.336C366.6 24.408 368.76 22.248 371.496 20.856C374.232 19.416 377.304 18.696 380.712 18.696Z" fill="white"/>
</svg>
