<svg width="435" height="609" viewBox="0 0 435 609" fill="none" xmlns="http://www.w3.org/2000/svg">
<path d="M205.676 485.354H10.6704L0 91.269H195.006L205.676 485.354Z" fill="#07689F"/>
<path d="M215.413 473.119H20.4069L9.73655 79.0342H204.742L215.413 473.119Z" fill="#07689F"/>
<path opacity="0.3" d="M215.413 473.119H20.4069L9.73655 79.0342H204.742L215.413 473.119Z" fill="white"/>
<path d="M150.089 241.192C170.969 214.503 170.081 170.861 148.105 143.715C126.13 116.569 91.389 116.2 70.5094 142.889C49.6298 169.579 50.5182 213.221 72.4935 240.367C94.4689 267.512 129.21 267.882 150.089 241.192Z" fill="#07689F"/>
<path d="M155.565 192.064C155.851 201.455 154.22 210.781 150.827 219.156C147.17 228.18 141.586 235.746 134.7 241.007C127.814 246.268 119.898 249.015 111.84 248.941C103.588 248.881 95.4937 246.098 88.3669 240.871C81.2402 235.644 75.3314 228.156 71.232 219.156C67.4148 210.908 65.2823 201.6 65.0248 192.064C64.7715 184.67 65.7172 177.288 67.8044 170.367C69.8916 163.446 73.0767 157.131 77.1663 151.805C81.2559 146.479 86.1646 142.253 91.594 139.384C97.0234 136.516 102.86 135.064 108.75 135.118C120.883 135.226 132.517 141.203 141.235 151.807C149.953 162.412 155.085 176.829 155.565 192.064Z" fill="white"/>
<path opacity="0.6" d="M150.827 219.156C147.17 228.18 141.586 235.746 134.7 241.007C127.814 246.268 119.898 249.015 111.84 248.941C103.588 248.881 95.4936 246.098 88.3669 240.871C81.2402 235.644 75.3314 228.156 71.232 219.156C82.8399 209.219 96.5721 203.937 110.618 204.005C124.909 204.032 138.883 209.298 150.827 219.156Z" fill="#07689F"/>
<path opacity="0.6" d="M124.398 190.667C132.076 180.853 131.749 164.805 123.669 154.823C115.588 144.842 102.814 144.706 95.1361 154.52C87.4585 164.334 87.7851 180.382 95.8656 190.363C103.946 200.345 116.721 200.481 124.398 190.667Z" fill="#07689F"/>
<path d="M176.247 330.408H51.8413L51.0036 299.347H175.395L176.247 330.408Z" fill="white"/>
<path d="M177.744 385.922H53.3519L52.5005 354.861H176.906L177.744 385.922Z" fill="white"/>
<path d="M129.734 359.14L99.755 364.317C99.4688 364.36 99.1927 364.477 98.9443 364.661C98.6958 364.844 98.4802 365.09 98.3112 365.384C98.1422 365.677 98.0234 366.012 97.9623 366.366C97.9011 366.72 97.899 367.086 97.956 367.441L101.884 392.687C102.01 393.428 102.355 394.083 102.849 394.518C103.343 394.953 103.95 395.138 104.548 395.034L134.526 389.857C134.813 389.814 135.09 389.697 135.339 389.513C135.588 389.33 135.804 389.084 135.974 388.791C136.144 388.498 136.264 388.164 136.327 387.81C136.39 387.456 136.394 387.089 136.339 386.733L132.398 361.487C132.272 360.745 131.927 360.091 131.433 359.656C130.939 359.221 130.332 359.036 129.734 359.14ZM121.123 384.714L115.63 385.629L115.081 377.484C114.515 377.178 114.018 376.704 113.63 376.103C113.243 375.501 112.977 374.791 112.856 374.033C112.755 373.446 112.753 372.84 112.85 372.252C112.947 371.665 113.141 371.109 113.419 370.621C113.697 370.134 114.053 369.725 114.465 369.421C114.877 369.116 115.334 368.924 115.809 368.856C116.799 368.676 117.806 368.977 118.625 369.699C119.445 370.42 120.014 371.507 120.217 372.738C120.339 373.464 120.306 374.217 120.12 374.92C119.934 375.624 119.603 376.253 119.159 376.742L121.123 384.714Z" fill="#07689F"/>
<path d="M126.781 357.777C126.25 357.87 125.711 357.706 125.272 357.319C124.834 356.931 124.529 356.348 124.419 355.689L124.035 353.221C123.486 349.854 121.984 346.851 119.807 344.769C117.63 342.687 114.926 341.668 112.197 341.901C110.819 341.997 109.473 342.466 108.251 343.274C107.03 344.082 105.961 345.212 105.118 346.586C104.275 347.959 103.677 349.545 103.366 351.235C103.054 352.925 103.036 354.68 103.312 356.379L103.751 359.227C103.8 359.542 103.797 359.866 103.741 360.18C103.686 360.494 103.579 360.789 103.428 361.049C103.277 361.308 103.086 361.525 102.865 361.687C102.644 361.848 102.399 361.951 102.145 361.988C101.614 362.081 101.074 361.917 100.636 361.529C100.197 361.142 99.8923 360.559 99.7826 359.9L99.4118 357.484C99.0348 355.243 99.0224 352.93 99.3753 350.683C99.7283 348.436 100.439 346.302 101.466 344.409C102.492 342.517 103.812 340.905 105.347 339.67C106.883 338.435 108.601 337.603 110.398 337.225C114.295 336.401 118.294 337.494 121.567 340.277C124.84 343.059 127.135 347.317 127.976 352.169L128.415 355.016C128.467 355.334 128.464 355.662 128.408 355.979C128.351 356.296 128.242 356.594 128.088 356.855C127.934 357.115 127.738 357.332 127.513 357.491C127.288 357.65 127.038 357.747 126.781 357.777Z" fill="#07689F"/>
<path d="M157.213 429.426H76.2444L75.6951 409.201H156.664L157.213 429.426Z" fill="#07689F"/>
<path d="M118.102 314.878C118.126 315.615 118.031 316.351 117.822 317.041C117.613 317.731 117.295 318.361 116.886 318.892C116.478 319.423 115.988 319.844 115.446 320.13C114.905 320.416 114.322 320.56 113.735 320.555C112.524 320.547 111.363 319.952 110.493 318.895C109.623 317.837 109.112 316.398 109.066 314.878C109.04 314.139 109.134 313.402 109.342 312.711C109.55 312.02 109.868 311.389 110.277 310.858C110.686 310.327 111.176 309.906 111.719 309.62C112.262 309.335 112.845 309.192 113.433 309.2C114.642 309.212 115.802 309.809 116.671 310.865C117.54 311.922 118.053 313.359 118.102 314.878Z" fill="#263238"/>
<path d="M98.6839 314.878C98.7081 315.615 98.6128 316.352 98.4038 317.042C98.1949 317.732 97.8766 318.361 97.4683 318.892C97.0599 319.423 96.5701 319.844 96.0284 320.13C95.4867 320.416 94.9044 320.56 94.3169 320.555C93.105 320.547 91.942 319.953 91.0699 318.896C90.1977 317.838 89.6834 316.399 89.634 314.878C89.6098 314.14 89.7051 313.404 89.914 312.714C90.123 312.024 90.4413 311.394 90.8496 310.863C91.2579 310.333 91.7478 309.911 92.2895 309.626C92.8312 309.34 93.4135 309.195 94.001 309.2C95.2129 309.208 96.3758 309.802 97.248 310.86C98.1202 311.917 98.6344 313.356 98.6839 314.878Z" fill="#263238"/>
<path d="M79.2107 314.878C79.2369 315.616 79.143 316.353 78.9347 317.044C78.7265 317.735 78.4083 318.366 77.9995 318.897C77.5908 319.429 77.1002 319.85 76.5575 320.135C76.0149 320.42 75.4318 320.563 74.8437 320.555C73.6342 320.543 72.4747 319.947 71.6055 318.89C70.7362 317.833 70.2239 316.396 70.1745 314.878C70.1503 314.14 70.2456 313.404 70.4546 312.714C70.6635 312.024 70.9818 311.394 71.3902 310.863C71.7985 310.333 72.2884 309.911 72.8301 309.626C73.3718 309.34 73.954 309.195 74.5416 309.2C75.7521 309.208 76.9135 309.803 77.7834 310.861C78.6534 311.919 79.1647 313.358 79.2107 314.878Z" fill="#263238"/>
<path d="M137.603 314.878C137.629 315.619 137.534 316.359 137.324 317.053C137.114 317.746 136.794 318.378 136.382 318.91C135.97 319.442 135.476 319.862 134.931 320.145C134.385 320.428 133.798 320.568 133.208 320.555C131.999 320.543 130.839 319.947 129.97 318.89C129.101 317.833 128.588 316.396 128.539 314.878C128.515 314.14 128.61 313.404 128.819 312.714C129.028 312.024 129.346 311.394 129.755 310.863C130.163 310.333 130.653 309.911 131.195 309.626C131.736 309.34 132.318 309.195 132.906 309.2C134.121 309.199 135.29 309.79 136.165 310.849C137.041 311.908 137.556 313.352 137.603 314.878Z" fill="#263238"/>
<path d="M157.076 314.878C157.1 315.615 157.005 316.352 156.796 317.042C156.587 317.732 156.269 318.361 155.86 318.892C155.452 319.423 154.962 319.844 154.42 320.13C153.879 320.416 153.296 320.56 152.709 320.555C151.497 320.547 150.334 319.953 149.462 318.896C148.59 317.838 148.075 316.399 148.026 314.878C148.002 314.14 148.097 313.404 148.306 312.714C148.515 312.024 148.833 311.394 149.242 310.863C149.65 310.333 150.14 309.911 150.681 309.626C151.223 309.34 151.805 309.195 152.393 309.2C153.605 309.208 154.768 309.802 155.64 310.86C156.512 311.917 157.026 313.356 157.076 314.878Z" fill="#263238"/>
<path d="M319.576 191.546C321.402 195.222 322.913 198.759 324.492 202.435C326.071 206.111 327.472 209.804 328.859 213.583C331.689 221.235 334.031 229.158 335.863 237.276C336.096 238.294 336.289 239.381 336.495 240.434L336.797 242.039L336.948 242.832L337.126 244.144C337.439 247.114 337.29 250.132 336.687 253.031C335.752 257.553 334.314 261.887 332.416 265.904C329.026 273.222 324.93 279.986 320.221 286.042L314.481 280.451C317.378 273.744 319.959 266.83 322.212 259.744C323.206 256.611 323.911 253.345 324.314 250.011C324.44 249 324.403 247.967 324.204 246.974L323.654 244.869C323.435 243.988 323.229 243.143 322.954 242.263C320.877 235.132 318.46 228.165 315.717 221.4C312.97 214.497 310.031 207.595 307.079 201.02L319.576 191.546Z" fill="#FF8B7B"/>
<path d="M315.854 277.984L309.551 282.194L316.802 292.859C316.802 292.859 321.334 289.01 321.526 283.143L315.854 277.984Z" fill="#FF8B7B"/>
<path d="M301.105 288.769L308.878 296.517L316.843 292.858L309.592 282.194L301.105 288.769Z" fill="#FF8B7B"/>
<path d="M274.656 134.997C274.505 135.963 273.969 136.723 273.475 136.498C272.98 136.274 272.692 135.497 272.843 134.531C272.994 133.565 273.53 132.909 274.038 133.03C274.546 133.15 274.738 134.048 274.656 134.997Z" fill="#263238"/>
<path d="M273.969 136.654C272.584 139.349 270.911 141.794 268.998 143.919C269.447 144.508 269.993 144.968 270.598 145.266C271.202 145.564 271.851 145.693 272.5 145.644L273.969 136.654Z" fill="#FF5652"/>
<path d="M271.497 170.494V159.191L283.417 160.916C283.417 160.916 283.211 170.649 276.551 173.496L271.497 170.494Z" fill="#FF8B7B"/>
<path d="M274.917 151.045L283.321 154.082L283.472 161.002L271.552 159.19L274.917 151.045Z" fill="#FF8B7B"/>
<path opacity="0.2" d="M283.321 154.082L274.931 151.045L273.283 154.98C273.372 158.08 274.143 161.088 275.51 163.672C276.877 166.255 278.787 168.311 281.028 169.613C282.47 167.083 283.312 164.092 283.459 160.985L283.321 154.082Z" fill="black"/>
<path d="M278.24 130.389C278.357 130.388 278.469 130.332 278.556 130.234C278.639 130.125 278.686 129.98 278.686 129.829C278.686 129.678 278.639 129.532 278.556 129.423C278.076 128.735 277.47 128.203 276.791 127.873C276.112 127.542 275.38 127.423 274.656 127.525C274.542 127.556 274.442 127.641 274.377 127.763C274.312 127.884 274.287 128.032 274.306 128.176C274.325 128.32 274.388 128.45 274.482 128.537C274.575 128.625 274.691 128.664 274.807 128.647C275.381 128.586 275.957 128.695 276.491 128.965C277.026 129.235 277.502 129.657 277.883 130.2C277.927 130.263 277.982 130.314 278.044 130.347C278.106 130.38 278.173 130.394 278.24 130.389Z" fill="#263238"/>
<path d="M295.791 152.46C294.417 161.347 293.566 173.634 298.537 179.57C298.537 179.57 296.601 188.578 283.431 188.578C268.998 188.578 276.496 180.675 276.496 180.675C282.484 178.328 282.442 169.734 281.069 162.831L295.791 152.46Z" fill="#FF8B7B"/>
<path d="M301.215 185.506C302.506 183.211 302.451 175.981 301.078 174.721C298.867 172.65 289.377 172.184 276.606 175.877C277.979 182.78 275.04 186.542 275.04 186.542L301.215 185.506Z" fill="#07689F"/>
<path d="M344.13 595.174C343.742 595.353 343.329 595.432 342.916 595.405C342.503 595.378 342.098 595.247 341.727 595.018C341.586 594.849 341.489 594.629 341.45 594.388C341.411 594.148 341.431 593.898 341.507 593.672C341.553 593.487 341.629 593.316 341.731 593.171C341.832 593.025 341.958 592.908 342.098 592.827C343.402 592.05 346.396 593.586 346.533 593.655C346.575 593.674 346.612 593.709 346.636 593.756C346.661 593.802 346.673 593.858 346.671 593.914C346.668 593.969 346.654 594.021 346.63 594.067C346.606 594.112 346.572 594.149 346.533 594.173C345.763 594.613 344.957 594.949 344.13 595.174ZM342.565 593.241L342.29 593.345C342.208 593.394 342.136 593.464 342.077 593.55C342.018 593.636 341.973 593.736 341.947 593.845C341.823 594.363 341.947 594.518 342.029 594.57C342.551 595.139 344.473 594.57 345.833 593.931C344.797 593.4 343.681 593.165 342.565 593.241Z" fill="#07689F"/>
<path d="M346.492 594.19H346.368C345.284 593.793 342.949 591.705 342.922 590.324C342.917 590.109 342.972 589.899 343.077 589.729C343.183 589.559 343.331 589.44 343.498 589.392C343.835 589.262 344.199 589.299 344.515 589.496C345.805 590.324 346.629 593.689 346.657 593.827C346.677 593.872 346.688 593.923 346.688 593.974C346.688 594.026 346.677 594.076 346.657 594.121C346.637 594.15 346.611 594.173 346.582 594.185C346.553 594.197 346.522 594.199 346.492 594.19ZM343.745 589.91H343.636C343.361 590.031 343.361 590.204 343.361 590.273C343.361 591.101 344.927 592.723 346.108 593.396C345.806 592.052 345.194 590.851 344.35 589.945C344.164 589.838 343.952 589.826 343.759 589.91H343.745Z" fill="#07689F"/>
<path d="M272.816 597.21C271.58 597.21 270.385 597.003 269.987 596.295C269.88 596.116 269.822 595.898 269.822 595.674C269.822 595.45 269.88 595.232 269.987 595.053C270.063 594.882 270.168 594.734 270.293 594.618C270.418 594.502 270.562 594.421 270.715 594.38C272.321 593.828 275.7 596.244 275.837 596.347C275.877 596.375 275.91 596.419 275.93 596.471C275.949 596.524 275.955 596.583 275.947 596.64C275.94 596.699 275.919 596.753 275.887 596.796C275.855 596.839 275.814 596.869 275.768 596.882C274.793 597.099 273.806 597.208 272.816 597.21ZM271.291 594.863C271.146 594.833 270.997 594.833 270.852 594.863C270.758 594.885 270.669 594.932 270.591 595C270.513 595.069 270.448 595.157 270.399 595.26C270.234 595.622 270.289 595.795 270.399 595.898C270.838 596.675 273.283 596.692 275.082 596.382C273.91 595.567 272.622 595.051 271.291 594.863Z" fill="#07689F"/>
<path d="M275.741 596.882H275.645C274.477 596.226 272.17 593.603 272.349 592.24C272.349 591.912 272.568 591.515 273.2 591.429C273.427 591.398 273.656 591.427 273.874 591.513C274.091 591.599 274.292 591.741 274.463 591.93C275.349 593.246 275.874 594.886 275.96 596.606C275.965 596.656 275.958 596.707 275.941 596.752C275.924 596.798 275.898 596.837 275.864 596.865C275.826 596.888 275.782 596.894 275.741 596.882ZM273.379 591.895H273.282C272.87 591.895 272.843 592.154 272.843 592.223C272.733 593.051 274.299 595.105 275.493 596.002C275.383 594.619 274.937 593.312 274.216 592.257C273.981 592.014 273.684 591.885 273.379 591.895Z" fill="#07689F"/>
<path d="M286.356 596.589H276.702L275.741 568.478H285.395L286.356 596.589Z" fill="#FF8B7B"/>
<path d="M357.259 590.98L347.81 593.534L338.335 567.356L347.783 564.802L357.259 590.98Z" fill="#FF8B7B"/>
<path d="M346.904 592.343L357.52 589.462C357.707 589.41 357.902 589.442 358.073 589.552C358.243 589.663 358.378 589.844 358.453 590.066L362.134 600.092C362.232 600.335 362.282 600.604 362.282 600.876C362.281 601.149 362.229 601.417 362.13 601.66C362.031 601.902 361.887 602.112 361.711 602.271C361.535 602.43 361.332 602.535 361.117 602.576C357.41 603.508 355.624 603.733 350.887 604.992C348.03 605.769 341.548 607.753 337.58 608.841C333.611 609.928 332.251 605.13 333.803 604.25C340.669 600.264 343.622 596.761 345.503 593.5C345.84 592.91 346.339 592.498 346.904 592.343Z" fill="#263238"/>
<path d="M276.757 595.191H287.317C287.507 595.193 287.691 595.276 287.838 595.427C287.985 595.577 288.087 595.786 288.128 596.019L290.037 606.805C290.09 607.064 290.095 607.336 290.05 607.598C290.005 607.86 289.913 608.105 289.779 608.315C289.646 608.524 289.476 608.692 289.282 608.804C289.088 608.916 288.877 608.97 288.663 608.962C284.859 608.962 279.366 608.599 274.573 608.599C268.984 608.599 264.164 608.979 257.6 608.979C253.631 608.979 252.532 603.957 254.194 603.491C261.747 601.42 267.927 601.196 274.45 596.14C275.135 595.563 275.933 595.234 276.757 595.191Z" fill="#263238"/>
<path d="M315.854 182.314C324.918 184.92 332.334 213.962 332.334 213.962L314.151 231.374C309.46 225.064 306.149 217.336 304.538 208.941C301.394 193.721 306.543 179.639 315.854 182.314Z" fill="#07689F"/>
<path opacity="0.4" d="M315.854 182.314C324.918 184.92 332.334 213.962 332.334 213.962L314.151 231.374C309.46 225.064 306.149 217.336 304.538 208.941C301.394 193.721 306.543 179.639 315.854 182.314Z" fill="black"/>
<path d="M268.201 216.965C265.935 220.037 263.683 222.763 261.335 225.593C260.168 226.991 258.987 228.354 257.778 229.7L255.952 231.702L255.499 232.202C255.265 232.444 255.004 232.737 254.716 233.013C253.898 233.809 253.003 234.47 252.052 234.981C250.995 235.54 249.861 235.833 248.715 235.843C247.731 235.849 246.754 235.633 245.831 235.205C244.807 234.715 243.872 233.969 243.084 233.013C242.082 231.771 241.341 230.235 240.928 228.544C240.729 227.706 240.601 226.844 240.544 225.973C240.465 224.946 240.465 223.911 240.544 222.884C240.544 222.056 240.695 221.348 240.791 220.658C241.172 218.305 241.71 215.996 242.397 213.755C243.018 211.632 243.728 209.553 244.526 207.526C245.391 205.334 246.243 203.729 247.08 201.9C250.479 194.893 254.362 188.276 258.685 182.124C262.96 176.006 267.672 170.391 272.761 165.351L277.814 171.891C274.271 177.862 270.769 184.247 267.542 190.563C264.334 196.825 261.404 203.306 258.767 209.976C258.163 211.598 257.394 213.427 257.023 214.739C256.652 216.05 256.103 217.811 255.732 219.381C255.396 220.812 255.139 222.271 254.963 223.747C254.948 223.976 254.948 224.207 254.963 224.437C254.963 224.558 254.963 224.644 254.963 224.264C254.94 223.883 254.88 223.506 254.784 223.143C254.487 221.919 253.943 220.814 253.205 219.933C251.975 218.448 250.338 217.614 248.632 217.603C247.87 217.595 247.114 217.777 246.407 218.138C245.735 218.501 245.721 218.604 245.735 218.553L246.256 217.949L247.904 216.05L251.186 212.185C253.37 209.614 255.553 206.87 257.613 204.333L268.201 216.965Z" fill="#FF8B7B"/>
<path opacity="0.2" d="M308.054 203.626C312.97 209.734 314.563 220.882 314.92 230.546L314.124 231.322C309.424 225.02 306.111 217.289 304.511 208.889C304.332 207.974 304.168 207.163 304.044 206.18L308.054 203.626Z" fill="black"/>
<path d="M258.602 194.48C256.625 207.594 255.389 234.514 261.115 287.854H312.778C313.135 277.88 308.15 229.268 315.799 182.314C310.09 180.924 304.315 180.008 298.51 179.57C291.192 179.034 283.855 179.034 276.537 179.57C274.107 179.846 271.731 180.278 269.671 180.761C266.933 181.358 264.406 182.992 262.428 185.444C260.45 187.896 259.115 191.048 258.602 194.48Z" fill="#07689F"/>
<path opacity="0.4" d="M258.602 194.48C256.625 207.594 255.389 234.514 261.115 287.854H312.778C313.135 277.88 308.15 229.268 315.799 182.314C310.09 180.924 304.315 180.008 298.51 179.57C291.192 179.034 283.855 179.034 276.537 179.57C274.107 179.846 271.731 180.278 269.671 180.761C266.933 181.358 264.406 182.992 262.428 185.444C260.45 187.896 259.115 191.048 258.602 194.48Z" fill="black"/>
<path opacity="0.2" d="M266.499 213.859L257.174 211.046C256.872 218.156 256.858 226.974 257.27 237.845C261.568 231.702 267.062 222.125 266.499 213.859Z" fill="black"/>
<path opacity="0.2" d="M275.741 568.495L276.235 582.973H285.903L285.409 568.495H275.741Z" fill="black"/>
<path opacity="0.2" d="M347.783 564.802L338.335 567.374L343.224 580.868L352.672 578.297L347.783 564.802Z" fill="black"/>
<path d="M300.377 139.466C297.905 151.097 296.917 158.069 291.204 162.918C282.607 170.183 271.909 161.831 271.566 149.51C271.264 138.396 275.384 121.244 285.299 118.897C287.488 118.362 289.751 118.541 291.87 119.416C293.989 120.29 295.895 121.832 297.407 123.893C298.918 125.955 299.984 128.468 300.504 131.194C301.024 133.92 300.981 136.768 300.377 139.466Z" fill="#FF8B7B"/>
<path d="M278.776 139.915C278.309 138.362 276.166 126.334 278.185 123.211C280.204 120.087 303.055 122.331 306.434 126.507C312.037 133.409 308.15 139.639 302.012 147.628C297.397 153.634 297.219 160.398 294.884 161.434C290.764 163.159 284.475 161.537 283.211 156.05C281.948 150.562 278.776 139.915 278.776 139.915Z" fill="#263238"/>
<path d="M303.591 112.84C295.516 108.508 280.355 113.288 272.184 110.821C272.076 114.643 273.074 118.386 274.993 121.355C276.912 124.324 279.622 126.32 282.621 126.973C289.41 128.597 296.309 129.395 303.22 129.354C312.215 128.905 310.457 116.515 303.591 112.84Z" fill="#263238"/>
<path d="M304.868 126.886C307.815 127.251 310.783 126.532 313.41 124.816C314.92 129.423 306.612 130.665 304.868 126.886Z" fill="#263238"/>
<path d="M283.102 140.398C282.916 143.386 281.951 146.213 280.355 148.44C278.24 151.356 276.043 149.544 275.672 145.989C275.343 142.797 276.029 137.361 278.597 135.825C281.165 134.29 283.28 136.792 283.102 140.398Z" fill="#FF8B7B"/>
<path d="M279.449 287.854C279.449 287.854 290.435 380.607 296.422 415.362C303.014 453.412 338.349 579.298 338.349 579.298L355.679 574.638C355.679 574.638 330.96 472.032 325.467 418.83C321.224 377.967 312.847 287.872 312.847 287.872L279.449 287.854Z" fill="#07689F"/>
<path d="M334.215 572.067C334.146 572.067 337.442 579.919 337.442 579.919L356.888 574.639L355.254 567.305L334.215 572.067Z" fill="#263238"/>
<path opacity="0.3" d="M286.37 320.969C299.045 324.093 297.713 383.489 296.189 414.033C292.522 392.445 287.18 350.892 283.527 321.401C284.408 320.853 285.411 320.701 286.37 320.969Z" fill="black"/>
<path d="M261.115 287.854C261.115 287.854 259.742 378.606 260.841 415.552C261.939 454.051 272.637 580.109 272.637 580.109H288.993C288.993 580.109 289.597 456.294 290.366 418.485C291.163 377.26 295.118 287.785 295.118 287.785L261.115 287.854Z" fill="#07689F"/>
<path d="M269.492 571.981C269.41 571.981 270.412 580.609 270.412 580.609H290.311L290.847 572.982L269.492 571.981Z" fill="#263238"/>
<path d="M278.844 198.449C283.472 214.135 256.268 232.599 256.268 232.599L244.485 213.617C244.485 213.617 252.34 193.962 261.994 185.092C273.901 174.134 275.315 186.524 278.844 198.449Z" fill="#07689F"/>
<path opacity="0.4" d="M278.844 198.449C283.472 214.135 256.268 232.599 256.268 232.599L244.485 213.617C244.485 213.617 252.34 193.962 261.994 185.092C273.901 174.134 275.315 186.524 278.844 198.449Z" fill="black"/>
<path d="M385.438 79.3795C412.81 79.3795 435 61.6098 435 39.6897C435 17.7697 412.81 0 385.438 0C358.066 0 335.877 17.7697 335.877 39.6897C335.877 61.6098 358.066 79.3795 385.438 79.3795Z" fill="#07689F"/>
<path d="M367.544 59.6726C364.279 59.658 361.123 58.1963 358.631 55.5447C356.139 52.8932 354.471 49.2219 353.922 45.1772C353.36 40.7874 354.139 36.2931 356.103 32.5941C358.066 28.8951 361.069 26.2645 364.509 25.2288C367.324 24.3977 370.276 24.7043 372.944 26.1048C375.612 27.5054 377.86 29.9285 379.368 33.0287L411.187 24.7629C412.412 24.4314 413.69 24.6911 414.769 25.4905C415.848 26.2898 416.648 27.5703 417.01 29.077C417.177 29.8675 417.213 30.6924 417.118 31.5013C417.023 32.3103 416.797 33.0864 416.456 33.7823C416.114 34.4782 415.663 35.0793 415.13 35.5491C414.597 36.0188 413.994 36.3473 413.357 36.5145L412.519 36.7216C412.4 36.7563 412.288 36.8224 412.19 36.9157C412.093 37.009 412.012 37.1273 411.953 37.2627C411.895 37.3981 411.86 37.5476 411.851 37.7013C411.842 37.8549 411.859 38.0092 411.901 38.1539L412.464 39.9831C412.655 40.573 412.674 41.2284 412.518 41.8343C412.363 42.4402 412.042 42.9578 411.613 43.2963C411.278 43.5675 410.994 43.9272 410.78 44.3504C410.567 44.7735 410.429 45.25 410.377 45.7467C410.342 46.315 410.163 46.8542 409.866 47.2857C409.57 47.7172 409.171 48.0184 408.729 48.1453L408.07 48.3007C407.626 48.4105 407.165 48.3371 406.757 48.0914C406.349 47.8458 406.014 47.441 405.804 46.9374C405.525 46.3261 405.1 45.841 404.589 45.5511C404.078 45.2612 403.507 45.1813 402.958 45.3228C402.408 45.4643 401.909 45.8199 401.53 46.3391C401.15 46.8583 400.911 47.5145 400.846 48.2144C400.808 48.7841 400.626 49.3237 400.328 49.755C400.029 50.1862 399.629 50.4868 399.185 50.613L398.553 50.7683C398.107 50.8765 397.645 50.8025 397.235 50.5572C396.825 50.3119 396.488 49.9082 396.273 49.4051C396.073 48.9716 395.797 48.6006 395.467 48.3197C395.136 48.0388 394.759 47.8554 394.365 47.783C393.863 47.6787 393.406 47.358 393.073 46.8761C392.74 46.3941 392.55 45.7811 392.538 45.1427V43.1928C392.535 43.0376 392.504 42.8855 392.447 42.7479C392.389 42.6103 392.308 42.491 392.209 42.399C392.113 42.2978 392 42.2264 391.878 42.1904C391.756 42.1544 391.63 42.1549 391.508 42.1919L381.305 44.8666C380.884 48.4082 379.602 51.6999 377.636 54.2915C375.669 56.8831 373.114 58.6479 370.318 59.3448C369.405 59.5755 368.476 59.6854 367.544 59.6726ZM364.798 26.8855C361.698 27.8218 358.994 30.1943 357.227 33.5283C355.46 36.8623 354.76 40.9118 355.267 44.8666C355.806 48.5593 357.379 51.8878 359.701 54.2502C362.023 56.6125 364.941 57.8526 367.927 57.7463C370.914 57.64 373.771 56.1942 375.983 53.6705C378.195 51.1467 379.615 47.7116 379.986 43.9866V43.3653L391.082 40.4835C391.399 40.3966 391.728 40.3995 392.044 40.492C392.36 40.5846 392.655 40.7644 392.909 41.0185C393.163 41.2682 393.37 41.5843 393.517 41.9448C393.664 42.3053 393.747 42.7017 393.76 43.1065V45.0564C393.763 45.2928 393.83 45.5209 393.949 45.703C394.069 45.885 394.235 46.0101 394.42 46.0573C395.02 46.1654 395.593 46.4437 396.095 46.8713C396.597 47.2988 397.015 47.8643 397.317 48.525C397.39 48.7112 397.507 48.8644 397.652 48.9633C397.797 49.0623 397.963 49.102 398.127 49.0772L398.759 48.9046C398.919 48.8471 399.061 48.728 399.164 48.5639C399.268 48.3998 399.328 48.1991 399.336 47.99C399.439 46.9352 399.802 45.9476 400.376 45.1666C400.949 44.3855 401.704 43.8505 402.532 43.6369C403.36 43.4234 404.221 43.5421 404.993 43.9764C405.765 44.4107 406.409 45.1386 406.834 46.0573C406.906 46.2438 407.023 46.3964 407.169 46.4927C407.315 46.5891 407.481 46.6239 407.644 46.5923L408.303 46.437C408.462 46.3787 408.602 46.2589 408.703 46.0946C408.804 45.9303 408.861 45.73 408.866 45.5224C408.935 44.767 409.138 44.0408 409.462 43.3983C409.785 42.7558 410.22 42.2135 410.734 41.8122C410.89 41.6846 411.005 41.4911 411.058 41.2665C411.111 41.0419 411.098 40.801 411.022 40.587L410.473 38.7579C410.357 38.3796 410.307 37.9741 410.328 37.5694C410.349 37.1647 410.44 36.7706 410.594 36.4143C410.748 36.058 410.962 35.7482 411.221 35.5063C411.48 35.2643 411.778 35.0961 412.094 35.0132L412.931 34.8061C413.386 34.6851 413.816 34.4494 414.196 34.1133C414.576 33.7772 414.898 33.3477 415.142 32.8507C415.386 32.3538 415.547 31.7998 415.615 31.2224C415.684 30.6449 415.658 30.0559 415.541 29.4912C415.273 28.4088 414.69 27.4932 413.908 26.9271C413.127 26.3609 412.204 26.1859 411.325 26.4368L378.544 34.9442L378.297 34.392C376.971 31.4658 374.93 29.155 372.475 27.8027C370.021 26.4504 367.285 26.1287 364.674 26.8855H364.798ZM367.544 53.2705C365.299 53.2623 363.141 52.1706 361.517 50.2209C359.893 48.2712 358.927 45.6124 358.819 42.7934C358.71 39.9745 359.467 37.2108 360.933 35.0731C362.4 32.9353 364.463 31.5868 366.698 31.306C368.933 31.0252 371.168 31.8335 372.942 33.5641C374.716 35.2946 375.894 37.8152 376.232 40.6053C376.569 43.3955 376.042 46.242 374.757 48.5572C373.473 50.8723 371.53 52.4793 369.33 53.0462C368.752 53.2011 368.163 53.282 367.572 53.2878L367.544 53.2705ZM367.544 32.8907C367.033 32.8943 366.522 32.9579 366.02 33.0805C364.155 33.6575 362.54 35.12 361.514 37.1612C360.488 39.2024 360.132 41.6635 360.519 44.028C360.906 46.3924 362.007 48.4764 363.591 49.8426C365.175 51.2087 367.119 51.7508 369.014 51.355C369.969 51.1084 370.877 50.6272 371.684 49.9392C372.491 49.2512 373.183 48.3697 373.719 47.3454C374.254 46.3211 374.624 45.174 374.806 43.9699C374.989 42.7658 374.98 41.5282 374.782 40.3282C374.438 38.233 373.531 36.3501 372.213 34.9958C370.895 33.6415 369.247 32.8981 367.544 32.8907Z" fill="white"/>
<path opacity="0.6" d="M345.091 102.641C354.086 102.641 361.378 96.8004 361.378 89.5954C361.378 82.3904 354.086 76.5496 345.091 76.5496C336.096 76.5496 328.804 82.3904 328.804 89.5954C328.804 96.8004 336.096 102.641 345.091 102.641Z" fill="#07689F"/>
<path opacity="0.3" d="M319.191 107.991C322.885 107.991 325.879 105.596 325.879 102.641C325.879 99.6868 322.885 97.2917 319.191 97.2917C315.498 97.2917 312.504 99.6868 312.504 102.641C312.504 105.596 315.498 107.991 319.191 107.991Z" fill="#07689F"/>
</svg>
