<svg width="1184" height="643" viewBox="0 0 1184 643" fill="none" xmlns="http://www.w3.org/2000/svg">
<path d="M701.114 112.67C836.162 121.607 1066.21 88.5072 1152.93 150.404C1239.65 212.301 1183.05 368.864 1092.36 473.46C1001.66 578.056 876.544 630.354 770.293 640.284C663.711 650.545 575.334 618.438 505.493 593.282C435.321 568.457 383.685 550.252 355.219 514.835C326.753 479.418 322.119 426.458 230.432 352.645C138.745 278.832 -39.3327 183.835 -50.5867 120.283C-61.8407 56.7312 94.0603 23.9622 211.565 9.39818C329.07 -5.49682 408.179 -2.5178 467.428 24.6242C527.008 51.7662 566.397 103.402 701.114 112.67Z" fill="#07689F" fill-opacity="0.05"/>
</svg>
