<svg width="66" height="66" viewBox="0 0 66 66" fill="none" xmlns="http://www.w3.org/2000/svg">
<path d="M33.0928 43.1562C37.5801 43.1562 41.2178 39.5186 41.2178 35.0312C41.2178 30.5439 37.5801 26.9062 33.0928 26.9062C28.6055 26.9062 24.9678 30.5439 24.9678 35.0312C24.9678 39.5186 28.6055 43.1562 33.0928 43.1562Z" fill="white"/>
<path d="M58.4834 18.7812H47.9463C47.5654 18.7812 47.0932 18.535 46.725 18.1465L43.2617 12.7129C41.8525 10.6562 41.2178 10.6562 38.9326 10.6562H27.2529C24.9678 10.6562 24.2061 10.6562 22.9276 12.7142L19.4605 18.1465C19.1787 18.4537 18.7826 18.7812 18.3662 18.7812V16.75C18.3662 16.4806 18.2592 16.2223 18.0687 16.0318C17.8783 15.8414 17.6199 15.7344 17.3506 15.7344H12.2725C12.0031 15.7344 11.7448 15.8414 11.5543 16.0318C11.3638 16.2223 11.2568 16.4806 11.2568 16.75V18.7812H7.70215C6.89407 18.7812 6.11908 19.1023 5.54768 19.6737C4.97628 20.2451 4.65527 21.02 4.65527 21.8281V52.2969C4.65527 53.105 4.97628 53.8799 5.54768 54.4513C6.11908 55.0227 6.89407 55.3438 7.70215 55.3438H58.4834C59.2915 55.3438 60.0665 55.0227 60.6379 54.4513C61.2093 53.8799 61.5303 53.105 61.5303 52.2969V21.8281C61.5303 21.02 61.2093 20.2451 60.6379 19.6737C60.0665 19.1023 59.2915 18.7812 58.4834 18.7812ZM33.6653 47.2061C31.2088 47.3214 28.7749 46.691 26.6833 45.3975C24.5918 44.1041 22.9404 42.2082 21.9463 39.9589C20.9521 37.7096 20.6617 35.2121 21.1131 32.7947C21.5645 30.3773 22.7367 28.153 24.4756 26.4141C26.2146 24.6752 28.4389 23.503 30.8563 23.0516C33.2737 22.6001 35.7711 22.8906 38.0204 23.8847C40.2697 24.8789 42.1656 26.5302 43.4591 28.6218C44.7525 30.7134 45.383 33.1473 45.2676 35.6038C45.1221 38.634 43.853 41.5013 41.7079 43.6464C39.5628 45.7915 36.6955 47.0606 33.6653 47.2061Z" fill="white"/>
</svg>
