<svg width="42" height="24" viewBox="0 0 42 24" fill="none" xmlns="http://www.w3.org/2000/svg">
<path fill-rule="evenodd" clip-rule="evenodd" d="M33.3821 0.35437C37.952 0.35437 41.6567 3.13796 41.6567 6.57169V17.452C41.6567 20.8857 37.952 23.6693 33.3821 23.6693H8.5582C3.98825 23.6693 0.283569 20.8857 0.283569 17.452V6.57169C0.283569 3.13796 3.98825 0.35437 8.5582 0.35437H33.3821ZM34.0209 7.98908C33.3489 7.29484 32.0551 7.14135 31.1312 7.64626L21.5786 12.8663C21.216 13.0644 20.7246 13.0644 20.3619 12.8663L10.8094 7.64626C9.88542 7.14135 8.59165 7.29484 7.91967 7.98908C7.24769 8.68333 7.45197 9.65544 8.37594 10.1603L17.9285 15.3803C19.7419 16.3713 22.1987 16.3713 24.0121 15.3803L33.5646 10.1603C34.4886 9.65544 34.6929 8.68333 34.0209 7.98908Z" fill="#333333"/>
</svg>
