<svg width="42" height="27" viewBox="0 0 42 27" fill="none" xmlns="http://www.w3.org/2000/svg">
<path fill-rule="evenodd" clip-rule="evenodd" d="M35.4507 0.236206C38.8782 0.236206 41.6567 2.34122 41.6567 4.93788V17.4757C41.6567 20.0723 38.8782 22.1774 35.4507 22.1774H20.2806C19.833 22.1774 19.3975 22.2873 19.0394 22.4908L11.868 26.5656C10.5043 27.3405 8.5582 26.6033 8.5582 25.3118V22.1774H6.48954C3.06208 22.1774 0.283569 20.0723 0.283569 17.4757V4.93788C0.283569 2.34122 3.06208 0.236206 6.48954 0.236206H35.4507ZM12.6955 9.63956C13.838 9.63956 14.7642 10.3412 14.7642 11.2068C14.7642 12.0723 13.838 12.774 12.6955 12.774C11.553 12.774 10.6269 12.0723 10.6269 11.2068C10.6269 10.3412 11.553 9.63956 12.6955 9.63956ZM20.9701 9.63956C22.1126 9.63956 23.0388 10.3412 23.0388 11.2068C23.0388 12.0723 22.1126 12.774 20.9701 12.774C19.8276 12.774 18.9015 12.0723 18.9015 11.2068C18.9015 10.3412 19.8276 9.63956 20.9701 9.63956ZM29.2448 9.63956C30.3873 9.63956 31.3134 10.3412 31.3134 11.2068C31.3134 12.0723 30.3873 12.774 29.2448 12.774C28.1023 12.774 27.1761 12.0723 27.1761 11.2068C27.1761 10.3412 28.1023 9.63956 29.2448 9.63956Z" fill="#333333"/>
</svg>
