<svg width="24" height="25" viewBox="0 0 24 25" fill="none" xmlns="http://www.w3.org/2000/svg">
<path d="M16.6168 13.5034L21.8018 15.8602C23.1405 16.4688 24 17.8036 24 19.2741V20.3424C24 22.4134 22.3211 24.0924 20.25 24.0924H3.75C1.67893 24.0924 0 22.4134 0 20.3424V19.2741C0 17.8036 0.85951 16.4688 2.19824 15.8602L7.38324 13.5034C5.62814 12.1307 4.5 9.99327 4.5 7.59238C4.5 3.45024 7.85786 0.0923767 12 0.0923767C16.1421 0.0923767 19.5 3.45024 19.5 7.59238C19.5 9.99327 18.3719 12.1307 16.6168 13.5034ZM8.9419 14.4426L2.81894 17.2258C2.01571 17.5909 1.5 18.3918 1.5 19.2741V20.3424C1.5 21.585 2.50736 22.5924 3.75 22.5924H20.25C21.4926 22.5924 22.5 21.585 22.5 20.3424V19.2741C22.5 18.3918 21.9843 17.5909 21.1811 17.2258L15.0581 14.4426C14.1242 14.8602 13.0892 15.0924 12 15.0924C10.9108 15.0924 9.87584 14.8602 8.9419 14.4426ZM12 13.5924C15.3137 13.5924 18 10.9061 18 7.59238C18 4.27867 15.3137 1.59238 12 1.59238C8.68629 1.59238 6 4.27867 6 7.59238C6 10.9061 8.68629 13.5924 12 13.5924Z" fill="#5A5A5A"/>
</svg>
