<svg width="127" height="128" viewBox="0 0 127 128" fill="none" xmlns="http://www.w3.org/2000/svg">
<g filter="url(#filter0_f_1160_198)">
<path d="M64.307 76.7309C62.5233 75.984 60.7111 75.2235 58.8791 74.4541C47.7357 69.7771 36.2468 64.9548 29.3001 62.3857C29.3112 62.5366 29.313 62.6882 29.3274 62.8403L30.474 75.166L64.307 76.7309Z" fill="#07689F" fill-opacity="0.15"/>
<path d="M30.7791 78.5446L27.7252 77.7202L26.337 62.7875C26.2951 62.3345 26.2682 61.8588 26.2519 61.3582C26.235 60.966 26.232 60.5773 26.2322 60.1877C26.2322 60.1625 26.2307 60.1435 26.2308 60.1182L26.2369 58.2378L26.3043 58.261C26.8973 50.1418 31.1372 42.9472 37.9972 38.8497L39.3992 38.0119L41.5204 36.7453L52.3053 24.2086L54.5954 26.386L60.2472 19.8185L60.5968 19.35C48.8398 18.8072 37.3909 22.8014 29.1724 31.4453C13.7699 47.6453 15.2231 74.3508 31.9556 92.3875L30.7791 78.5446Z" fill="#07689F" fill-opacity="0.15"/>
<path d="M52.3412 29.0089L44.5219 38.0967C49.74 41.6822 57.0309 46.691 64.9856 52.1516L52.3412 29.0089Z" fill="#07689F" fill-opacity="0.15"/>
<path d="M39.7435 41.4572C33.4716 45.2019 29.6462 51.8437 29.2598 59.3057C36.1928 61.8229 48.1689 66.8473 59.777 71.7206C70.0669 76.04 79.844 80.1428 85.9303 82.4396L85.3258 78.2326L74.0379 71.8497L69.7915 72.1948C68.9772 72.2564 68.1887 71.6471 68.0314 70.8252C67.875 70.0024 68.407 69.2825 69.221 69.2166L71.4354 69.0363L68.2124 64.8827C67.6795 64.1948 67.7629 63.2686 68.3975 62.8119C68.9673 62.4027 69.7868 62.5097 70.3348 63.0307C70.3988 63.0916 70.4569 63.1565 70.5133 63.2277L75.1626 69.2167L86.6939 75.7376C87.9558 75.2946 89.6556 74.666 91.6369 73.8626C74.7705 62.3123 53.2938 47.5613 42.2426 39.9673L39.7435 41.4572Z" fill="#07689F" fill-opacity="0.15"/>
<path d="M87.1252 90.7582L86.3968 85.6852C82.8983 84.403 77.8996 82.3803 72.1662 80.008C72.0652 80.0249 71.972 80.0611 71.8618 80.0556L42.4749 78.6961L87.1252 90.7582Z" fill="#07689F" fill-opacity="0.15"/>
<path d="M108.352 65.1952L107.671 65.6094C105.516 67.0445 103.038 68.4782 100.331 69.8724L102.749 72.1716L100.997 73.0525C100.155 73.4755 99.3285 73.8706 98.5116 74.2533C98.3784 74.3156 98.242 74.3788 98.1066 74.4411C97.0818 74.9165 96.0862 75.3612 95.131 75.7702L94.6974 75.9582L94.694 75.9549C92.1694 77.025 89.9532 77.8623 88.3418 78.4347L89.0829 83.586L90.6839 94.7283L87.5403 93.8791L88.779 103.703C92.0648 101.862 95.113 99.5377 97.8084 96.7027C105.913 88.1785 109.348 76.7446 108.352 65.1952Z" fill="#07689F" fill-opacity="0.15"/>
<path d="M62.6751 21.8349L56.8856 28.5656L97.938 67.597C100.873 66.1203 103.534 64.591 105.859 63.041L107.923 61.7864C106.267 51.5363 101.14 41.4127 92.682 33.3709C84.4308 25.5259 74.36 20.9393 64.2912 19.6632L62.6751 21.8349Z" fill="#07689F" fill-opacity="0.15"/>
<path d="M84.4488 93.0441L73.4012 90.0599L33.8352 79.3713L35.2162 95.6105C50.0153 109.042 70.2678 112.321 85.972 105.132L84.4488 93.0441Z" fill="#07689F" fill-opacity="0.15"/>
<path d="M70.1976 55.7274C78.4854 61.415 87.1473 67.3551 94.7363 72.5498C94.7749 72.532 94.8158 72.5143 94.8556 72.4976C95.8241 72.07 96.7548 71.6454 97.6494 71.2177L58.1344 33.648L70.1976 55.7274Z" fill="#07689F" fill-opacity="0.15"/>
</g>
<defs>
<filter id="filter0_f_1160_198" x="17.4612" y="18.3013" width="92.0586" height="91.5464" filterUnits="userSpaceOnUse" color-interpolation-filters="sRGB">
<feFlood flood-opacity="0" result="BackgroundImageFix"/>
<feBlend mode="normal" in="SourceGraphic" in2="BackgroundImageFix" result="shape"/>
<feGaussianBlur stdDeviation="0.5" result="effect1_foregroundBlur_1160_198"/>
</filter>
</defs>
</svg>
