<svg width="169" height="180" viewBox="0 0 169 180" fill="none" xmlns="http://www.w3.org/2000/svg">
<g opacity="0.2">
<path fill-rule="evenodd" clip-rule="evenodd" d="M59.7022 61.514C58.1809 61.514 56.7219 62.1573 55.6461 63.3023C54.5704 64.4473 53.9661 66.0002 53.9661 67.6195V124.604C53.9661 126.223 54.5704 127.776 55.6461 128.921C56.7219 130.066 58.1809 130.709 59.7022 130.709H113.239C114.76 130.709 116.219 130.066 117.295 128.921C118.371 127.776 118.975 126.223 118.975 124.604V67.6195C118.975 66.0002 118.371 64.4473 117.295 63.3023C116.219 62.1573 114.76 61.514 113.239 61.514H59.7022ZM76.9105 85.9358C78.9389 85.9358 80.8842 85.0781 82.3185 83.5515C83.7528 82.0248 84.5586 79.9542 84.5586 77.7952C84.5586 75.6362 83.7528 73.5656 82.3185 72.0389C80.8842 70.5123 78.9389 69.6546 76.9105 69.6546C74.8821 69.6546 72.9367 70.5123 71.5024 72.0389C70.0681 73.5656 69.2623 75.6362 69.2623 77.7952C69.2623 79.9542 70.0681 82.0248 71.5024 83.5515C72.9367 85.0781 74.8821 85.9358 76.9105 85.9358ZM92.2297 90.5067C91.8707 90.0654 91.4268 89.7115 90.9279 89.4689C90.4291 89.2263 89.8871 89.1007 89.3387 89.1007C88.7903 89.1007 88.2483 89.2263 87.7495 89.4689C87.2506 89.7115 86.8067 90.0654 86.4477 90.5067L80.4707 97.8536L78.0692 94.4102C77.7134 93.9 77.2504 93.4855 76.7172 93.2C76.184 92.9144 75.5953 92.7657 74.9984 92.7657C74.4015 92.7657 73.8129 92.9144 73.2797 93.2C72.7465 93.4855 72.2835 93.9 71.9277 94.4102L64.6237 104.879C64.2012 105.485 63.9453 106.204 63.8844 106.956C63.8236 107.707 63.9603 108.462 64.2792 109.136C64.5981 109.81 65.0868 110.376 65.6905 110.772C66.2943 111.167 66.9894 111.376 67.6983 111.375H100.838C101.571 111.375 102.289 111.151 102.906 110.73C103.523 110.308 104.013 109.706 104.317 108.996C104.622 108.286 104.729 107.498 104.624 106.725C104.52 105.953 104.209 105.229 103.729 104.639L92.2297 90.5067Z" fill="#07689F"/>
<path fill-rule="evenodd" clip-rule="evenodd" d="M61.6142 69.6546V95.5417L65.7863 89.5584C65.8627 89.4444 65.9392 89.3386 66.0234 89.2327C63.1934 86.1888 61.6085 82.0776 61.6142 77.7952C61.6142 74.828 62.3599 72.048 63.6601 69.6546H61.6142ZM59.7022 61.514C58.1809 61.514 56.7219 62.1573 55.6461 63.3023C54.5704 64.4473 53.9661 66.0002 53.9661 67.6195V124.604C53.9661 126.223 54.5704 127.776 55.6461 128.921C56.7219 130.066 58.1809 130.709 59.7022 130.709H113.239C114.76 130.709 116.219 130.066 117.295 128.921C118.371 127.776 118.975 126.223 118.975 124.604V67.6195C118.975 66.0002 118.371 64.4473 117.295 63.3023C116.219 62.1573 114.76 61.514 113.239 61.514H59.7022ZM90.1609 69.6546H111.327V102.302C110.859 101.218 110.247 100.211 109.511 99.3108L98.0117 85.1787C96.411 83.2 94.2531 81.8239 91.8588 81.255C92.6642 77.2979 92.059 73.1634 90.1609 69.6546ZM87.3578 89.6886C88.1296 89.1906 89.0419 88.9991 89.9335 89.1481C90.8251 89.2971 91.6385 89.7769 92.2297 90.5027L103.729 104.639C104.209 105.229 104.52 105.953 104.624 106.725C104.729 107.498 104.622 108.286 104.317 108.996C104.013 109.706 103.523 110.308 102.906 110.73C102.289 111.151 101.571 111.375 100.838 111.375H67.6983C66.9897 111.375 66.2951 111.166 65.6919 110.77C65.0887 110.374 64.6006 109.808 64.2822 109.134C63.9637 108.461 63.8274 107.706 63.8884 106.955C63.9493 106.203 64.2053 105.485 64.6276 104.879L71.9277 94.4102C72.2835 93.9 72.7465 93.4855 73.2797 93.2C73.8129 92.9144 74.4015 92.7657 74.9984 92.7657C75.5953 92.7657 76.184 92.9144 76.7172 93.2C77.2504 93.4855 77.7134 93.9 78.0692 94.4102L80.4707 97.8536L86.4477 90.5067C86.7091 90.1851 87.0162 89.909 87.3578 89.6886ZM81.2852 84.4705C82.2971 83.7223 83.1235 82.7242 83.6937 81.5616C84.2638 80.399 84.5606 79.1066 84.5586 77.7952C84.559 75.9734 83.9853 74.204 82.9292 72.7703C81.8731 71.3366 80.3956 70.3214 78.7333 69.8872C77.071 69.4529 75.3199 69.6248 73.7602 70.3752C72.2005 71.1257 70.9223 72.4113 70.1303 74.0264C69.3383 75.6415 69.0782 77.4927 69.3916 79.2837C69.7051 81.0748 70.5739 82.7022 71.8591 83.9055C73.1442 85.1088 74.7715 85.8184 76.4804 85.9209C78.1894 86.0233 79.8812 85.5126 81.2852 84.4705ZM111.327 112.25C109.606 116.378 105.805 119.516 100.838 119.516H67.6983C65.5483 119.53 63.4385 118.895 61.6142 117.684V122.568H111.327V112.25Z" fill="#07689F"/>
</g>
<path fill-rule="evenodd" clip-rule="evenodd" d="M73.0864 81.8654C74.1006 81.8654 75.0732 81.4366 75.7904 80.6733C76.5075 79.9099 76.9104 78.8746 76.9104 77.7951C76.9104 76.7156 76.5075 75.6803 75.7904 74.917C75.0732 74.1537 74.1006 73.7248 73.0864 73.7248C72.0722 73.7248 71.0995 74.1537 70.3823 74.917C69.6652 75.6803 69.2623 76.7156 69.2623 77.7951C69.2623 78.8746 69.6652 79.9099 70.3823 80.6733C71.0995 81.4366 72.0722 81.8654 73.0864 81.8654ZM73.0864 85.9357C75.1148 85.9357 77.0601 85.0781 78.4944 83.5514C79.9287 82.0247 80.7345 79.9541 80.7345 77.7951C80.7345 75.6361 79.9287 73.5655 78.4944 72.0389C77.0601 70.5122 75.1148 69.6545 73.0864 69.6545C71.058 69.6545 69.1126 70.5122 67.6783 72.0389C66.244 73.5655 65.4382 75.6361 65.4382 77.7951C65.4382 79.9541 66.244 82.0247 67.6783 83.5514C69.1126 85.0781 71.058 85.9357 73.0864 85.9357Z" fill="#07689F"/>
<path d="M71.1746 92.7656L63.8706 103.234H71.1746L78.4785 107.305H63.8706C63.1624 107.304 62.4682 107.094 61.8656 106.698C61.2629 106.302 60.7754 105.736 60.4574 105.062C60.1394 104.388 60.0034 103.634 60.0646 102.883C60.1257 102.132 60.3816 101.414 60.8037 100.808L68.1038 90.3397C68.4596 89.8295 68.9226 89.415 69.4558 89.1295C69.989 88.8439 70.5777 88.6952 71.1746 88.6952C71.7715 88.6952 72.3601 88.8439 72.8933 89.1295C73.4265 89.415 73.8896 89.8295 74.2453 90.3397L77.8973 95.5741L74.8266 98L71.1746 92.7656Z" fill="#07689F"/>
<path fill-rule="evenodd" clip-rule="evenodd" d="M97.0136 103.234L85.5147 89.1024L74.0157 103.234H97.0136ZM88.4056 86.4364C88.0467 85.9951 87.6027 85.6411 87.1039 85.3985C86.6051 85.156 86.0631 85.0304 85.5147 85.0304C84.9662 85.0304 84.4242 85.156 83.9254 85.3985C83.4266 85.6411 82.9826 85.9951 82.6237 86.4364L71.1247 100.568C70.6444 101.158 70.3335 101.883 70.2291 102.655C70.1247 103.428 70.2312 104.216 70.5359 104.926C70.8406 105.636 71.3306 106.237 71.9476 106.659C72.5645 107.081 73.2824 107.305 74.0157 107.305H97.0136C97.7469 107.305 98.4648 107.081 99.0817 106.659C99.6987 106.237 100.189 105.636 100.493 104.926C100.798 104.216 100.905 103.428 100.8 102.655C100.696 101.883 100.385 101.158 99.9046 100.568L88.4056 86.4364Z" fill="#07689F"/>
<path fill-rule="evenodd" clip-rule="evenodd" d="M113.239 56.7793H59.7022C59.1951 56.7793 58.7087 56.9937 58.3502 57.3754C57.9916 57.757 57.7901 58.2747 57.7901 58.8144V115.799C57.7901 116.338 57.9916 116.856 58.3502 117.238C58.7087 117.619 59.1951 117.834 59.7022 117.834H113.239C113.746 117.834 114.233 117.619 114.591 117.238C114.95 116.856 115.151 116.338 115.151 115.799V58.8144C115.151 58.2747 114.95 57.757 114.591 57.3754C114.233 56.9937 113.746 56.7793 113.239 56.7793ZM59.7022 52.709C58.1809 52.709 56.7219 53.3522 55.6461 54.4972C54.5704 55.6422 53.9661 57.1952 53.9661 58.8144V115.799C53.9661 117.418 54.5704 118.971 55.6461 120.116C56.7219 121.261 58.1809 121.904 59.7022 121.904H113.239C114.76 121.904 116.219 121.261 117.295 120.116C118.371 118.971 118.975 117.418 118.975 115.799V58.8144C118.975 57.1952 118.371 55.6422 117.295 54.4972C116.219 53.3522 114.76 52.709 113.239 52.709H59.7022Z" fill="#07689F"/>
<g filter="url(#filter0_f_671_268)">
<ellipse cx="84.6885" cy="89.9997" rx="79.8684" ry="86" fill="#D9D9D9" fill-opacity="0.3"/>
</g>
<defs>
<filter id="filter0_f_671_268" x="0.820068" y="-0.000305176" width="167.737" height="180" filterUnits="userSpaceOnUse" color-interpolation-filters="sRGB">
<feFlood flood-opacity="0" result="BackgroundImageFix"/>
<feBlend mode="normal" in="SourceGraphic" in2="BackgroundImageFix" result="shape"/>
<feGaussianBlur stdDeviation="2" result="effect1_foregroundBlur_671_268"/>
</filter>
</defs>
</svg>
