<svg width="60" height="59" viewBox="0 0 60 59" fill="none" xmlns="http://www.w3.org/2000/svg">
<g filter="url(#filter0_ii_608_430)">
<path d="M0 0H36C49.2548 0 60 10.7452 60 24V58.8H24C10.7452 58.8 0 48.0548 0 34.8V0Z" fill="url(#paint0_linear_608_430)"/>
<path d="M29.1569 11.1632L36.0684 11.1632L50.1199 47.9836L44.3308 47.9836L29.1569 11.1632Z" fill="url(#paint1_linear_608_430)"/>
<path d="M25.5002 15.5588L29.1201 11.1498L44.061 48.0655L38.0335 48.1715L25.5002 15.5588Z" fill="url(#paint2_linear_608_430)"/>
<path d="M25.4325 15.5634L27.3449 19.2281L15.4849 48.4185L11.9183 48.4185L25.4325 15.5634Z" fill="url(#paint3_linear_608_430)"/>
<ellipse cx="13.1349" cy="27.5607" rx="4.83371" ry="2.8641" fill="url(#paint4_linear_608_430)"/>
<ellipse cx="14.8018" cy="21.4374" rx="3.16692" ry="1.87648" fill="url(#paint5_linear_608_430)"/>
<ellipse cx="20.3022" cy="18.277" rx="2.00016" ry="1.28391" fill="url(#paint6_linear_608_430)"/>
<ellipse cx="20.2183" cy="34.4787" rx="7.44879" ry="4.41359" fill="#E7F4FB"/>
<path d="M13.0929 32.8604L13.6349 33.5924C14.5157 33.6774 15.8405 33.7691 17.0307 33.8828C17.649 33.9418 18.2307 34.0064 18.6951 34.0819C19.1607 34.1553 19.5085 34.2204 19.7098 34.3672L19.7264 34.3785L19.7362 34.3918C19.8945 34.5909 20.067 34.7024 20.2204 34.7552C20.3739 34.808 20.5098 34.8112 20.6649 34.7817C20.974 34.7246 21.3309 34.4967 21.5411 34.2253C21.7492 33.9546 21.8004 33.656 21.6518 33.4847C21.578 33.3997 21.4647 33.3387 21.2624 33.3046C21.0624 33.2698 20.764 33.2677 20.3559 33.3272C20.0612 33.3706 19.6181 33.3533 19.0074 33.3194C18.3977 33.2868 17.6484 33.2311 16.8668 33.1686C15.4929 33.0566 14.0505 32.927 13.0929 32.8604ZM16.925 31.8202C17.4333 31.8593 18.322 31.9377 19.2858 32.0696C20.7673 32.2719 22.4037 32.617 22.9843 33.059L22.9853 33.0603C23.1375 33.1776 23.4255 33.5261 23.7279 33.9603C24.0294 34.3932 24.3635 34.9179 24.6716 35.4259C25.048 36.0446 25.3863 36.6339 25.5958 37.0014L26.0032 36.8859C25.7918 36.5158 25.4581 35.9364 25.0886 35.327C24.7772 34.8183 24.4434 34.2903 24.1361 33.8494C23.8297 33.4099 23.5676 33.067 23.3347 32.8923L23.3337 32.891C22.5977 32.3309 20.9114 32.0177 19.3993 31.811C18.757 31.7233 18.1456 31.659 17.6544 31.6135L16.925 31.8202ZM14.235 34.5835L14.4757 34.9084C16.0156 35.1877 18.1421 35.5014 19.4843 35.6442C19.8232 36.4917 20.594 37.4591 21.2173 38.2421L21.6225 38.1273C20.9763 37.3171 20.1854 36.3152 19.8814 35.4964L19.8514 35.4118L19.71 35.3973C18.303 35.2553 15.8061 34.8812 14.235 34.5835ZM21.702 32.9971L22.6639 34.0019C22.8071 33.8826 22.8684 33.7706 22.8796 33.6679C22.8919 33.5264 22.8069 33.3933 22.6567 33.2786C22.4215 33.1045 22.0336 32.9962 21.702 32.9971ZM22.1449 34.2757C22.1031 34.3148 22.0488 34.396 21.9479 34.4952C21.7628 34.6792 21.3963 34.905 20.5955 35.0999C20.657 35.2124 20.8033 35.2849 21.0461 35.3332C21.348 35.3953 21.7868 35.3993 22.2512 35.3351L22.3257 35.3253L22.3942 35.3443C22.5505 35.3899 22.6365 35.4618 22.7605 35.5631C22.8845 35.6643 23.0246 35.7947 23.174 35.945C23.4737 36.2467 23.8147 36.6299 24.1352 37.0077C24.2287 37.1192 24.3212 37.2294 24.4094 37.3375L25.0623 37.1525C24.5118 36.4533 23.937 35.6549 23.4468 34.7797C23.3283 34.6159 23.1969 34.4606 23.0168 34.3608C22.8367 34.261 22.6216 34.2096 22.2429 34.2351C22.1932 34.2379 22.1641 34.2574 22.1449 34.2757ZM21.0481 35.6119C21.0796 35.6543 21.1132 35.6961 21.1492 35.7373C21.2985 35.9132 21.4759 36.0571 21.6137 36.0999L21.6811 36.1209L22.8899 37.7681L23.2906 37.6546L22.0876 35.9527L22.1149 35.9049C22.1823 35.7863 22.1865 35.7001 22.1701 35.6117C21.7699 35.656 21.3832 35.6597 21.0481 35.6119Z" fill="url(#paint7_linear_608_430)"/>
<line y1="-1" x2="40.1161" y2="-1" transform="matrix(0.381972 0.924174 -0.989635 0.143604 29.1568 11.1498)" stroke="url(#paint8_linear_608_430)" stroke-width="2"/>
</g>
<defs>
<filter id="filter0_ii_608_430" x="-4" y="-4" width="66" height="66.8" filterUnits="userSpaceOnUse" color-interpolation-filters="sRGB">
<feFlood flood-opacity="0" result="BackgroundImageFix"/>
<feBlend mode="normal" in="SourceGraphic" in2="BackgroundImageFix" result="shape"/>
<feColorMatrix in="SourceAlpha" type="matrix" values="0 0 0 0 0 0 0 0 0 0 0 0 0 0 0 0 0 0 127 0" result="hardAlpha"/>
<feOffset dx="2" dy="4"/>
<feGaussianBlur stdDeviation="2"/>
<feComposite in2="hardAlpha" operator="arithmetic" k2="-1" k3="1"/>
<feColorMatrix type="matrix" values="0 0 0 0 0 0 0 0 0 0 0 0 0 0 0 0 0 0 0.1 0"/>
<feBlend mode="normal" in2="shape" result="effect1_innerShadow_608_430"/>
<feColorMatrix in="SourceAlpha" type="matrix" values="0 0 0 0 0 0 0 0 0 0 0 0 0 0 0 0 0 0 127 0" result="hardAlpha"/>
<feOffset dx="-4" dy="-4"/>
<feGaussianBlur stdDeviation="2"/>
<feComposite in2="hardAlpha" operator="arithmetic" k2="-1" k3="1"/>
<feColorMatrix type="matrix" values="0 0 0 0 0 0 0 0 0 0 0 0 0 0 0 0 0 0 0.1 0"/>
<feBlend mode="normal" in2="effect1_innerShadow_608_430" result="effect2_innerShadow_608_430"/>
</filter>
<linearGradient id="paint0_linear_608_430" x1="30" y1="0" x2="30" y2="58.8" gradientUnits="userSpaceOnUse">
<stop stop-color="#1A71A3"/>
<stop offset="1" stop-color="#0098CF" stop-opacity="0.91"/>
</linearGradient>
<linearGradient id="paint1_linear_608_430" x1="32.3319" y1="10.5482" x2="39.9634" y2="49.9507" gradientUnits="userSpaceOnUse">
<stop stop-color="white"/>
<stop offset="1" stop-color="#E0E0E0" stop-opacity="0.76"/>
</linearGradient>
<linearGradient id="paint2_linear_608_430" x1="26.1589" y1="11.7233" x2="33.5904" y2="50.0935" gradientUnits="userSpaceOnUse">
<stop stop-color="white"/>
<stop offset="1" stop-color="#E0E0E0" stop-opacity="0.76"/>
</linearGradient>
<linearGradient id="paint3_linear_608_430" x1="26.5816" y1="15.7182" x2="21.9916" y2="49.7761" gradientUnits="userSpaceOnUse">
<stop stop-color="white"/>
<stop offset="1" stop-color="#E0E0E0" stop-opacity="0.76"/>
</linearGradient>
<linearGradient id="paint4_linear_608_430" x1="13.1349" y1="24.6966" x2="13.1349" y2="30.4248" gradientUnits="userSpaceOnUse">
<stop stop-color="white"/>
<stop offset="1" stop-color="#E0E0E0" stop-opacity="0.76"/>
</linearGradient>
<linearGradient id="paint5_linear_608_430" x1="14.8018" y1="19.5609" x2="14.8018" y2="23.3139" gradientUnits="userSpaceOnUse">
<stop stop-color="white"/>
<stop offset="1" stop-color="#E0E0E0" stop-opacity="0.76"/>
</linearGradient>
<linearGradient id="paint6_linear_608_430" x1="20.3022" y1="16.9931" x2="20.3022" y2="19.5609" gradientUnits="userSpaceOnUse">
<stop stop-color="white"/>
<stop offset="1" stop-color="#E0E0E0" stop-opacity="0.76"/>
</linearGradient>
<linearGradient id="paint7_linear_608_430" x1="17.3022" y1="31.6676" x2="33.1743" y2="47.3176" gradientUnits="userSpaceOnUse">
<stop stop-color="#268CC6"/>
<stop offset="1" stop-color="#24AAF5"/>
</linearGradient>
<linearGradient id="paint8_linear_608_430" x1="20.058" y1="0" x2="20.058" y2="1" gradientUnits="userSpaceOnUse">
<stop stop-color="#2AA0E2"/>
<stop offset="1" stop-color="#41A6DF"/>
</linearGradient>
</defs>
</svg>
